<?xml version="1.0" encoding="UTF-8"?>
<svg xmlns="http://www.w3.org/2000/svg" xmlns:xlink="http://www.w3.org/1999/xlink" viewBox="0 0 32 32" width="32px" height="32px">
<g id="surface250427193">
<path style=" stroke:none;fill-rule:evenodd;fill:rgb(27.843139%,61.56863%,96.470588%);fill-opacity:1;" d="M 11 24 L 11 13 L 8 13 L 8 24 Z M 11 24 "/>
<path style=" stroke:none;fill-rule:evenodd;fill:rgb(27.843139%,61.56863%,96.470588%);fill-opacity:1;" d="M 9.679688 11.5 C 10.933594 11.5 11.71875 10.761719 11.71875 9.722656 C 11.695312 8.660156 10.933594 7.898438 9.703125 7.898438 C 8.46875 7.898438 7.664062 8.636719 7.664062 9.699219 C 7.664062 10.738281 8.445312 11.5 9.65625 11.5 Z M 9.679688 11.5 "/>
<path style=" stroke:none;fill-rule:evenodd;fill:rgb(27.843139%,61.56863%,96.470588%);fill-opacity:1;" d="M 13.472656 24 L 17 24 L 17 17.957031 C 17 17.632812 17.0625 17.308594 17.15625 17.078125 C 17.417969 16.429688 18.09375 15.757812 19.089844 15.757812 C 20.394531 15.757812 21 16.753906 21 18.210938 L 21 24 L 24 24 L 24 17.792969 C 24 14.464844 22.457031 13.046875 20.085938 13.046875 C 18.144531 13.046875 17.527344 14 17.050781 15 L 17 15 L 17 13 L 13.472656 13 C 13.519531 14 13.386719 24 13.386719 24 Z M 13.472656 24 "/>
<path style=" stroke:none;fill-rule:nonzero;fill:rgb(3.921569%,40.000001%,76.078433%);fill-opacity:1;" d="M 25 28.5 L 7 28.5 C 5.070312 28.5 3.5 26.929688 3.5 25 L 3.5 7 C 3.5 5.070312 5.070312 3.5 7 3.5 L 25 3.5 C 26.929688 3.5 28.5 5.070312 28.5 7 L 28.5 25 C 28.5 26.929688 26.929688 28.5 25 28.5 Z M 7 4.5 C 5.621094 4.5 4.5 5.621094 4.5 7 L 4.5 25 C 4.5 26.378906 5.621094 27.5 7 27.5 L 25 27.5 C 26.378906 27.5 27.5 26.378906 27.5 25 L 27.5 7 C 27.5 5.621094 26.378906 4.5 25 4.5 Z M 7 4.5 "/>
</g>
</svg>
